<?xml version="1.0" encoding="UTF-8"?>
<svg xmlns="http://www.w3.org/2000/svg" xmlns:xlink="http://www.w3.org/1999/xlink" width="485pt" height="121pt" viewBox="0 0 485 121" version="1.1">
<g id="surface1">
<path style=" stroke:none;fill-rule:nonzero;fill:rgb(41.176471%,40%,40%);fill-opacity:1;" d="M 145.851562 36.300781 L 178.550781 36.449219 L 178.5 46.25 L 145.800781 46.101562 L 145.699219 68.699219 L 134.101562 68.648438 L 134.199219 40.050781 C 134.300781 31.851562 135.101562 26.449219 136.550781 23.851562 C 138.25 20.398438 141.148438 17.699219 144.699219 16.148438 C 148.25 14.648438 153.199219 13.898438 159.648438 13.898438 L 178.648438 14 L 178.601562 23.800781 L 161.101562 23.75 C 155.699219 23.851562 152.199219 24.25 150.648438 25 C 147.601562 26.25 146 29.050781 145.851562 33.351562 Z M 186.5 44.851562 L 186.648438 14 L 198.25 14.050781 L 198.101562 44.898438 C 198.25 48.800781 198.398438 51.351562 198.550781 52.648438 C 198.949219 55.148438 200.101562 56.898438 202.148438 57.800781 C 204.148438 58.699219 207.75 59.199219 212.851562 59.199219 L 224.050781 59.25 L 224 69.050781 L 211.601562 69 C 205.75 68.949219 201.5 68.648438 198.851562 67.949219 C 192.851562 66.148438 189 62.300781 187.398438 56.398438 C 186.75 54.101562 186.5 50.25 186.5 44.851562 Z M 230.351562 14.25 L 241.949219 14.300781 L 241.800781 47.199219 C 241.699219 49.25 241.949219 51.300781 242.449219 53.300781 C 242.851562 54.699219 243.601562 56 244.648438 57.050781 C 246.949219 59.300781 250.148438 60.449219 254.25 60.449219 C 256.601562 60.5 258.949219 60.050781 261.101562 59.101562 C 262.851562 58.398438 264.300781 57.101562 265.199219 55.449219 C 265.949219 53.898438 266.351562 51.199219 266.398438 47.25 L 266.550781 14.351562 L 278.25 14.398438 L 278.101562 46.699219 C 278.199219 50.25 277.699219 53.851562 276.699219 57.25 C 275.898438 59.800781 274.449219 62.101562 272.5 63.949219 C 268.148438 67.699219 262 69.601562 254.050781 69.550781 C 245.550781 69.5 239.398438 67.601562 235.5 63.898438 C 233.601562 62.148438 232.148438 59.898438 231.351562 57.449219 C 230.601562 55.050781 230.199219 51.699219 230.25 47.398438 Z M 300.75 69.351562 L 300.949219 24.300781 L 283.5 24.25 L 283.550781 14.449219 L 330.800781 14.648438 L 330.75 24.449219 L 312.601562 24.351562 L 312.398438 69.398438 Z M 348.75 69.550781 L 348.949219 24.5 L 330 24.449219 L 330.050781 14.648438 L 378.800781 14.851562 L 378.75 24.648438 L 360.601562 24.550781 L 360.398438 69.601562 Z M 406.25 15 L 425.898438 15.101562 L 425.851562 24.898438 L 410.648438 24.851562 C 406.699219 24.851562 403.800781 25.101562 402 25.648438 C 400.199219 26.199219 398.601562 27.300781 397.449219 28.851562 C 396.699219 29.851562 396.101562 30.949219 395.75 32.148438 C 395.351562 34 395.050781 35.851562 394.949219 37.75 L 425.800781 37.898438 L 425.75 47.699219 L 394.898438 47.550781 C 395.300781 52.25 396.699219 55.550781 399.050781 57.398438 C 401.398438 59.25 405.398438 60.199219 411.050781 60.199219 L 425.699219 60.25 L 425.648438 70.050781 L 410.449219 70 C 406.800781 70 403.199219 69.75 399.601562 69.199219 C 394.648438 68.351562 390.75 66.148438 387.851562 62.648438 C 383.699219 57.601562 381.648438 50.75 381.699219 42.148438 C 381.75 32.601562 384.699219 25.199219 390.601562 19.898438 C 392.449219 18.199219 394.648438 16.898438 397.050781 16.148438 C 400.101562 15.25 403.199219 14.898438 406.25 15 Z M 456 49.25 L 446.601562 49.199219 L 446.5 70 L 434.851562 69.949219 L 435.101562 15.101562 L 461.898438 15.199219 C 469.550781 15.25 474.898438 16.25 477.898438 18.199219 C 479.949219 19.5 481.601562 21.300781 482.699219 23.449219 C 483.800781 25.648438 484.398438 28.101562 484.351562 30.550781 C 484.351562 35.75 483 39.800781 480.351562 42.601562 C 478.550781 44.398438 476.300781 45.699219 473.851562 46.449219 C 475.601562 47 477.25 47.851562 478.75 48.898438 C 480 49.949219 481 51.199219 481.699219 52.648438 C 482.300781 53.851562 482.75 55.148438 483.101562 56.449219 C 483.449219 58.199219 483.699219 60 483.800781 61.800781 C 484.101562 65.75 484.550781 68.5 485.101562 70.101562 L 472.050781 70.050781 C 471.449219 67.5 471.050781 64.851562 470.851562 62.25 C 470.601562 59.050781 470.050781 56.648438 469.199219 54.949219 C 468.351562 53.25 467.050781 51.851562 465.398438 50.898438 C 463.148438 49.75 460.101562 49.199219 456 49.25 Z M 446.75 24.949219 L 446.699219 39.398438 L 463.050781 39.449219 C 465.800781 39.449219 467.75 39.050781 468.898438 38.25 C 470.648438 37.050781 471.550781 34.949219 471.550781 31.949219 C 471.550781 28.601562 470.25 26.449219 467.648438 25.5 C 466.199219 25.101562 464.648438 24.949219 463.148438 25 Z M 446.75 24.949219 "/>
<path style=" stroke:none;fill-rule:nonzero;fill:rgb(0%,60.784314%,100%);fill-opacity:1;" d="M 102.25 26.898438 L 59 1.75 C 55.851562 0.148438 52.101562 0.148438 48.898438 1.699219 L 5.601562 26.5 C 2.601562 28.449219 0.699219 31.699219 0.449219 35.300781 L 0.25 85.25 C 0.449219 88.851562 2.300781 92.101562 5.300781 94.101562 L 48.449219 119.25 C 51.648438 120.898438 55.398438 120.898438 58.601562 119.300781 L 101.949219 94.5 C 104.898438 92.550781 106.800781 89.300781 107 85.699219 L 107.199219 35.75 C 107.050781 32.199219 105.199219 28.898438 102.25 26.898438 Z M 58.699219 82.648438 L 34.101562 82.5 C 28.148438 82.449219 23.300781 87.300781 23.25 93.25 L 23.351562 71.648438 C 23.351562 65.699219 28.148438 60.851562 34.148438 60.851562 L 58.800781 60.949219 C 64.75 61.148438 69.449219 66.101562 69.300781 72.050781 C 69.050781 77.851562 64.398438 82.449219 58.699219 82.648438 Z M 78 53.851562 L 34.199219 53.648438 C 28.25 53.601562 23.398438 58.449219 23.351562 64.398438 L 23.449219 42.851562 C 23.449219 36.898438 28.300781 32.050781 34.300781 32.050781 L 78.050781 32.25 C 84 32.300781 88.851562 37.148438 88.800781 43.101562 C 88.75 49.050781 83.898438 53.898438 77.949219 53.851562 Z M 78 53.851562 "/>
<path style=" stroke:none;fill-rule:nonzero;fill:rgb(0%,60.784314%,100%);fill-opacity:1;" d="M 135 103.300781 C 135.050781 93.949219 139.648438 90.851562 146.75 90.898438 C 149.050781 90.898438 150.949219 91.199219 152.398438 91.75 L 152.398438 96.351562 C 150.898438 95.800781 149.101562 95.5 147.101562 95.5 C 142.75 95.5 140.800781 97.449219 140.800781 103.351562 C 140.75 109.648438 142.699219 111.25 147 111.25 C 149 111.25 150.800781 111 152.648438 110.351562 L 152.648438 114.898438 C 151.199219 115.5 149.050781 115.898438 146.75 115.898438 C 139.601562 115.800781 134.949219 113.398438 135 103.300781 Z M 135 103.300781 "/>
<path style=" stroke:none;fill-rule:nonzero;fill:rgb(0%,60.784314%,100%);fill-opacity:1;" d="M 193.351562 91.398438 L 193.25 115.648438 L 187.949219 115.648438 L 188 104.949219 L 178.449219 104.898438 L 178.398438 115.648438 L 173.101562 115.648438 L 173.199219 91.398438 L 178.5 91.398438 L 178.449219 100.5 L 188 100.550781 L 188.050781 91.449219 Z M 193.351562 91.398438 "/>
<path style=" stroke:none;fill-rule:nonzero;fill:rgb(0%,60.784314%,100%);fill-opacity:1;" d="M 215.199219 91.5 L 220.5 91.5 L 220.398438 115.75 L 215.101562 115.75 Z M 215.199219 91.5 "/>
<path style=" stroke:none;fill-rule:nonzero;fill:rgb(0%,60.784314%,100%);fill-opacity:1;" d="M 242.300781 91.601562 L 250.398438 91.648438 L 257.949219 109 L 258.148438 109 L 258.199219 91.648438 L 263.398438 91.648438 L 263.300781 115.898438 L 256 115.851562 L 247.699219 97.351562 L 247.5 97.351562 L 247.398438 115.800781 L 242.148438 115.800781 Z M 242.300781 91.601562 "/>
<path style=" stroke:none;fill-rule:nonzero;fill:rgb(0%,60.784314%,100%);fill-opacity:1;" d="M 300.050781 110.101562 L 290.199219 110.050781 L 288.101562 116.050781 L 282.601562 116.050781 L 291.75 91.851562 L 298.898438 91.898438 L 307.75 116.199219 L 302.148438 116.199219 Z M 298.5 105.699219 L 295.398438 96.5 L 295 96.5 L 291.75 105.648438 Z M 298.5 105.699219 "/>
<path style=" stroke:none;fill-rule:nonzero;fill:rgb(0%,60.784314%,100%);fill-opacity:1;" d="M 351.648438 104.199219 C 351.699219 94.851562 356.300781 91.75 363.398438 91.800781 C 365.699219 91.800781 367.601562 92.101562 369.050781 92.648438 L 369.050781 97.25 C 367.550781 96.699219 365.75 96.398438 363.75 96.398438 C 359.398438 96.398438 357.449219 98.351562 357.449219 104.25 C 357.398438 110.550781 359.351562 112.148438 363.648438 112.148438 C 365.648438 112.148438 367.449219 111.898438 369.300781 111.25 L 369.300781 115.800781 C 367.851562 116.398438 365.699219 116.800781 363.398438 116.800781 C 356.25 116.699219 351.601562 114.351562 351.648438 104.199219 Z M 351.648438 104.199219 "/>
<path style=" stroke:none;fill-rule:nonzero;fill:rgb(0%,60.784314%,100%);fill-opacity:1;" d="M 404.75 111.949219 L 404.75 116.550781 L 389.800781 116.5 L 389.898438 92.25 L 395.199219 92.25 L 395.101562 111.898438 Z M 404.75 111.949219 "/>
<path style=" stroke:none;fill-rule:nonzero;fill:rgb(0%,60.784314%,100%);fill-opacity:1;" d="M 424.300781 108.601562 L 424.351562 92.398438 L 429.648438 92.398438 L 429.601562 108 C 429.601562 110.898438 430.601562 112.449219 434.449219 112.449219 C 438.449219 112.449219 439.351562 110.75 439.351562 108.050781 L 439.398438 92.449219 L 444.699219 92.449219 L 444.648438 108.648438 C 444.601562 114.601562 440.898438 117 434.398438 117 C 427.851562 117 424.25 115 424.300781 108.601562 Z M 424.300781 108.601562 "/>
<path style=" stroke:none;fill-rule:nonzero;fill:rgb(0%,60.784314%,100%);fill-opacity:1;" d="M 466.351562 92.601562 L 474.5 92.648438 C 481.601562 92.699219 483.550781 94.851562 483.5 99.199219 C 483.5 101.699219 482.550781 103.398438 479.949219 104.148438 L 479.949219 104.300781 C 482.800781 105.050781 484.199219 106.898438 484.199219 109.949219 C 484.199219 114.351562 482.199219 116.949219 475.101562 116.898438 L 466.199219 116.851562 Z M 474.050781 112.601562 C 477.800781 112.601562 478.851562 112.050781 478.898438 109.550781 C 478.898438 107.300781 477.851562 106.449219 474.101562 106.449219 L 471.648438 106.449219 L 471.601562 112.601562 Z M 473.398438 102.601562 C 476.851562 102.601562 478.300781 102.148438 478.300781 99.699219 C 478.300781 97.199219 476.898438 96.851562 473.398438 96.800781 L 471.601562 96.800781 L 471.601562 102.550781 Z M 473.398438 102.601562 "/>
</g>
</svg>
